# Max2Obj Version 4.0 Mar 10th, 2001
#
# object objMesh02 to come ...
#
v  3.033730 2.074359 0.843109
v  3.033730 1.431755 1.485713
v  3.033730 0.553941 1.720923
v  3.033730 -0.323874 1.485713
v  3.033730 -0.966479 0.843109
v  1.748520 3.187384 1.485713
v  1.748520 2.074359 2.598737
v  1.748520 0.553941 3.006132
v  1.748520 -0.966479 2.598737
v  1.748520 -2.079503 1.485713
v  -0.007109 3.594779 1.720923
v  -0.007109 2.309569 3.006132
v  -0.007109 0.553941 3.476551
v  -0.007109 -1.201688 3.006132
v  -0.007109 -2.486897 1.720923
v  -1.762737 3.187384 1.485713
v  -1.762738 2.074359 2.598737
v  -1.762738 0.553941 3.006132
v  -1.762738 -0.966478 2.598737
v  -1.762738 -2.079503 1.485713
v  -3.047947 2.074359 0.843108
v  -3.047947 1.431755 1.485713
v  -3.047947 0.553941 1.720922
v  -3.047947 -0.323874 1.485713
v  -3.047947 -0.966478 0.843108
v  3.033730 2.300271 -0.000001
v  3.485551 0.614051 -0.000001
v  3.494131 0.563959 -0.000001
v  3.493411 0.533904 -0.000001
v  3.485551 0.493831 -0.000001
v  3.033730 -1.192389 -0.000001
v  1.748520 3.585480 -0.000001
v  3.004393 2.329606 -0.000001
v  1.748519 -2.477598 -0.000001
v  1.799331 -2.426787 -0.000001
v  -0.007109 4.055899 -0.000001
v  1.713816 3.594779 -0.000001
v  -0.007109 -2.948017 -0.000001
v  0.032965 -2.937280 -0.000001
v  -1.762738 3.585480 -0.000001
v  -0.047182 4.045161 -0.000001
v  -1.762738 -2.477597 -0.000001
v  -1.728032 -2.486897 -0.000001
v  -3.047947 2.300271 -0.000001
v  -1.813549 3.534668 -0.000001
v  -3.047947 -1.192389 -0.000001
v  -3.018610 -1.221725 -0.000001
v  -3.499768 0.614052 -0.000001
v  -3.508347 0.563960 -0.000001
v  -3.507628 0.533903 -0.000001
v  -3.499768 0.493830 -0.000001
v  3.033729 2.074359 -0.843111
v  3.033729 -0.966479 -0.843111
v  1.748519 3.187384 -1.485716
v  1.748519 2.074359 -2.598740
v  3.033729 1.431755 -1.485716
v  1.748519 0.553941 -3.006135
v  3.033729 0.553941 -1.720925
v  1.748519 -0.966479 -2.598740
v  3.033729 -0.323874 -1.485716
v  1.748519 -2.079503 -1.485715
v  -0.007109 3.594779 -1.720925
v  -0.007110 2.309569 -3.006134
v  -0.007110 0.553941 -3.476553
v  -0.007110 -1.201688 -3.006134
v  -0.007109 -2.486897 -1.720924
v  -1.762738 3.187384 -1.485715
v  -1.762738 2.074359 -2.598738
v  -1.762738 0.553941 -3.006133
v  -1.762738 -0.966478 -2.598738
v  -1.762738 -2.079503 -1.485714
v  -3.047947 2.074359 -0.843110
v  -3.047947 1.431755 -1.485714
v  -3.047947 0.553941 -1.720924
v  -3.047947 -0.323874 -1.485714
v  -3.047947 -0.966478 -0.843109
v  0.527851 3.527188 0.135492
v  -0.729683 3.527188 0.135492
v  0.363319 5.116164 0.135492
v  -0.915441 5.590185 0.135492
v  1.578876 4.374533 0.135492
v  1.436002 3.404223 0.135492
v  2.317174 3.450577 0.135492
v  2.505219 2.644449 0.135492
v  -1.945601 3.076019 0.135492
v  -2.109128 5.735307 0.135492
v  -2.946248 5.181417 0.135492
v  -2.953985 5.674306 0.135492
v  0.527851 3.527188 -0.135494
v  -0.729683 3.527188 -0.135494
v  0.363319 5.116164 -0.135494
v  -0.915441 5.590185 -0.135494
v  1.578876 4.374533 -0.135494
v  1.436002 3.404223 -0.135494
v  2.317174 3.450577 -0.135494
v  2.505219 2.644449 -0.135494
v  -1.945601 3.076019 -0.135494
v  -2.109128 5.735307 -0.135494
v  -2.946248 5.181417 -0.135494
v  -2.953985 5.674306 -0.135494
# 100 vertices

vt  0.848625 0.981148 0.846162
vt  0.762611 0.952753 0.856651
vt  0.790563 0.952313 0.858655
vt  0.853358 0.981321 0.845412
vt  0.910279 0.956682 0.839697
vt  0.941071 0.957898 0.834786
vt  0.761697 0.951636 0.856831
vt  0.733722 0.903344 0.864558
vt  0.771818 0.903042 0.868054
vt  0.810768 0.903246 0.865695
vt  0.819624 0.952614 0.857279
vt  0.850015 0.903919 0.857989
vt  0.849044 0.953613 0.852795
vt  0.889836 0.904914 0.846894
vt  0.879183 0.955089 0.846367
vt  0.930389 0.905985 0.835313
vt  0.969216 0.908805 0.826916
vt  0.733383 0.902000 0.864615
vt  0.716924 0.834968 0.867434
vt  0.760681 0.834968 0.871469
vt  0.805286 0.834968 0.868755
vt  0.850188 0.834968 0.859883
vt  0.895663 0.834968 0.847087
vt  0.941862 0.834968 0.833703
vt  0.987415 0.836589 0.823644
vt  0.970700 0.906815 0.826594
vt  0.717314 0.833415 0.867369
vt  0.733722 0.766593 0.864558
vt  0.771818 0.766895 0.868054
vt  0.810768 0.766691 0.865695
vt  0.850015 0.766018 0.857989
vt  0.889836 0.765023 0.846894
vt  0.930389 0.763952 0.835313
vt  0.971053 0.764523 0.826535
vt  0.987820 0.834968 0.823575
vt  0.735115 0.764650 0.864246
vt  0.762611 0.717184 0.856651
vt  0.790563 0.717624 0.858655
vt  0.819624 0.717323 0.857280
vt  0.849044 0.716324 0.852795
vt  0.879183 0.714847 0.846368
vt  0.910279 0.713255 0.839697
vt  0.942066 0.713175 0.834600
vt  0.970700 0.763122 0.826594
vt  0.846631 0.683011 0.846162
vt  0.851364 0.682839 0.845412
vt  0.941071 0.712039 0.834786
vt  0.850298 0.981657 0.845913
vt  0.851657 0.981714 0.845664
vt  0.850976 0.981768 0.845789
vt  0.848269 0.682402 0.845913
vt  0.848941 0.682273 0.845789
vt  0.849629 0.682346 0.845664
vt  0.762611 0.952753 0.856651
vt  0.848625 0.981148 0.846162
vt  0.790563 0.952313 0.858655
vt  0.910279 0.956682 0.839697
vt  0.853358 0.981321 0.845412
vt  0.941071 0.957898 0.834786
vt  0.733722 0.903344 0.864558
vt  0.761697 0.951636 0.856831
vt  0.771818 0.903042 0.868054
vt  0.810768 0.903246 0.865695
vt  0.819624 0.952614 0.857279
vt  0.850015 0.903919 0.857989
vt  0.849044 0.953613 0.852795
vt  0.889836 0.904914 0.846894
vt  0.879183 0.955089 0.846367
vt  0.930389 0.905985 0.835313
vt  0.969216 0.908805 0.826916
vt  0.716924 0.834968 0.867434
vt  0.733383 0.902000 0.864615
vt  0.760681 0.834968 0.871469
vt  0.805286 0.834968 0.868755
vt  0.850188 0.834968 0.859883
vt  0.895663 0.834968 0.847087
vt  0.941862 0.834968 0.833703
vt  0.987415 0.836589 0.823644
vt  0.970700 0.906815 0.826594
vt  0.733722 0.766593 0.864558
vt  0.717314 0.833415 0.867369
vt  0.771818 0.766895 0.868054
vt  0.810768 0.766691 0.865695
vt  0.850015 0.766018 0.857989
vt  0.889836 0.765023 0.846894
vt  0.930389 0.763952 0.835313
vt  0.971053 0.764523 0.826535
vt  0.987820 0.834968 0.823575
vt  0.762611 0.717184 0.856651
vt  0.735115 0.764650 0.864246
vt  0.790563 0.717624 0.858655
vt  0.819624 0.717323 0.857280
vt  0.849044 0.716324 0.852795
vt  0.879183 0.714847 0.846368
vt  0.910279 0.713255 0.839697
vt  0.942066 0.713175 0.834600
vt  0.970700 0.763122 0.826594
vt  0.846631 0.683011 0.846162
vt  0.941071 0.712039 0.834786
vt  0.851364 0.682839 0.845412
vt  0.850298 0.981657 0.845913
vt  0.850976 0.981768 0.845789
vt  0.851657 0.981714 0.845664
vt  0.848269 0.682402 0.845913
vt  0.848941 0.682273 0.845789
vt  0.849629 0.682346 0.845664
vt  0.470139 0.687768 0.999497
vt  0.413178 0.687768 0.999498
vt  0.404764 0.808240 0.999498
vt  0.462686 0.780558 0.999497
vt  0.517746 0.737250 0.999496
vt  0.511274 0.680588 0.999496
vt  0.551187 0.683294 0.999496
vt  0.559705 0.636220 0.999495
vt  0.358103 0.661422 0.999499
vt  0.350696 0.816714 0.999499
vt  0.312778 0.784369 0.999500
vt  0.312427 0.813152 0.999500
vt  0.404764 0.808240 0.000503
vt  0.462686 0.780558 0.000502
vt  0.517746 0.737250 0.000501
vt  0.551187 0.683294 0.000500
vt  0.559705 0.636220 0.000500
vt  0.350696 0.816714 0.000504
vt  0.312778 0.784369 0.000505
vt  0.312427 0.813152 0.000505
vt  0.358103 0.661422 0.000504
vt  0.413178 0.687768 0.000503
vt  0.470139 0.687768 0.000502
vt  0.511274 0.680588 0.000501
# 130 texture vertices

vn  0.847435 0.459772 0.265450
vn  0.847435 0.265450 0.459772
vn  0.847522 -0.000086 0.530760
vn  0.847521 -0.265306 0.459696
vn  0.847435 -0.459772 0.265450
vn  0.482343 0.758623 0.437991
vn  0.482343 0.437991 0.758623
vn  0.482341 0.000000 0.875984
vn  0.482341 -0.437992 0.758624
vn  0.482341 -0.758624 0.437992
vn  0.000000 0.866026 0.500000
vn  0.000000 0.500000 0.866026
vn  0.000000 0.000000 1.000000
vn  0.000000 -0.500000 0.866026
vn  0.000000 -0.866026 0.500000
vn  -0.482343 0.758623 0.437991
vn  -0.482343 0.437991 0.758623
vn  -0.482343 0.000000 0.875982
vn  -0.482343 -0.437991 0.758623
vn  -0.482343 -0.758623 0.437991
vn  -0.847509 0.459632 0.265456
vn  -0.847511 0.265456 0.459628
vn  -0.847435 0.000000 0.530899
vn  -0.847435 -0.265450 0.459772
vn  -0.847435 -0.459772 0.265450
vn  0.847429 0.530909 0.000000
vn  0.982235 0.187655 0.000000
vn  0.998822 0.048534 0.000000
vn  0.996756 -0.080481 0.000000
vn  0.979099 -0.203384 0.000000
vn  0.847435 -0.530899 0.000000
vn  0.482339 0.875984 0.000000
vn  0.707100 0.707113 0.000000
vn  0.482339 -0.875984 0.000000
vn  0.707105 -0.707108 0.000000
vn  -0.000010 1.000000 0.000000
vn  0.258817 0.965926 0.000000
vn  -0.000003 -1.000000 0.000000
vn  0.258814 -0.965927 0.000000
vn  -0.482343 0.875982 0.000000
vn  -0.258830 0.965923 0.000000
vn  -0.482343 -0.875982 0.000000
vn  -0.258820 -0.965926 0.000000
vn  -0.847435 0.530899 0.000000
vn  -0.707108 0.707105 0.000000
vn  -0.847433 -0.530903 0.000000
vn  -0.707105 -0.707108 0.000000
vn  -0.982969 0.183773 0.000000
vn  -0.998191 0.060125 0.000000
vn  -0.996113 -0.088089 0.000000
vn  -0.979097 -0.203393 0.000000
vn  0.847435 0.459772 -0.265450
vn  0.847435 -0.459772 -0.265450
vn  0.482343 0.758623 -0.437991
vn  0.482341 0.437992 -0.758624
vn  0.847435 0.265450 -0.459772
vn  0.482341 0.000000 -0.875984
vn  0.847522 -0.000086 -0.530760
vn  0.482341 -0.437992 -0.758624
vn  0.847521 -0.265306 -0.459696
vn  0.482341 -0.758624 -0.437992
vn  0.000000 0.866026 -0.500000
vn  0.000000 0.500000 -0.866026
vn  0.000000 0.000000 -1.000000
vn  0.000000 -0.500000 -0.866026
vn  0.000000 -0.866026 -0.500000
vn  -0.482343 0.758623 -0.437991
vn  -0.482343 0.437991 -0.758623
vn  -0.482343 0.000000 -0.875982
vn  -0.482343 -0.437991 -0.758623
vn  -0.482343 -0.758623 -0.437991
vn  -0.847509 0.459632 -0.265456
vn  -0.847511 0.265456 -0.459628
vn  -0.847435 0.000000 -0.530899
vn  -0.847435 -0.265450 -0.459772
vn  -0.847435 -0.459772 -0.265450
vn  0.000000 0.000000 1.000000
vn  0.000000 0.000000 1.000000
vn  0.347575 0.937652 0.000000
vn  0.347575 0.937652 0.000000
vn  0.520831 0.853660 0.000000
vn  0.000000 0.000000 1.000000
vn  0.973855 0.227172 0.000000
vn  0.973855 0.227169 0.000000
vn  -0.903180 -0.429261 0.000000
vn  0.120687 0.992691 0.000000
vn  -0.999877 -0.015693 0.000000
vn  -0.999877 -0.015693 0.000000
vn  0.000000 0.000000 -1.000000
vn  0.000000 0.000000 -1.000000
vn  0.000000 0.000000 -1.000000
vn  0.000000 0.000000 -1.000000
vn  0.000000 0.000000 -1.000000
vn  0.000000 0.000000 -1.000000
vn  0.000000 0.000000 -1.000000
vn  0.000000 0.000000 -1.000000
vn  0.000000 0.000000 -1.000000
vn  0.000000 0.000000 -1.000000
vn  0.000000 0.000000 -1.000000
vn  0.000000 0.000000 -1.000000
# 100 vertex normals

g objMesh02
f 27/1/27 26/2/26 1/3/1
f 30/4/30 5/5/5 31/6/31
f 33/7/33 32/8/32 6/9/6
f 1/3/1 6/9/6 7/10/7
f 1/3/1 7/10/7 2/11/2
f 2/11/2 7/10/7 8/12/8
f 2/11/2 8/12/8 3/13/3
f 3/13/3 8/12/8 9/14/9
f 3/13/3 9/14/9 4/15/4
f 4/15/4 9/14/9 10/16/10
f 4/15/4 10/16/10 5/5/5
f 5/5/5 35/17/35 31/6/31
f 37/18/37 36/19/36 11/20/11
f 6/9/6 11/20/11 12/21/12
f 6/9/6 12/21/12 7/10/7
f 7/10/7 12/21/12 13/22/13
f 7/10/7 13/22/13 8/12/8
f 8/12/8 13/22/13 14/23/14
f 8/12/8 14/23/14 9/14/9
f 9/14/9 14/23/14 15/24/15
f 9/14/9 15/24/15 10/16/10
f 10/16/10 39/25/39 34/26/34
f 41/27/41 40/28/40 16/29/16
f 11/20/11 16/29/16 17/30/17
f 11/20/11 17/30/17 12/21/12
f 12/21/12 17/30/17 18/31/18
f 12/21/12 18/31/18 13/22/13
f 13/22/13 18/31/18 19/32/19
f 13/22/13 19/32/19 14/23/14
f 14/23/14 19/32/19 20/33/20
f 14/23/14 20/33/20 15/24/15
f 15/24/15 43/34/43 38/35/38
f 45/36/45 44/37/44 21/38/21
f 16/29/16 21/38/21 22/39/22
f 16/29/16 22/39/22 17/30/17
f 17/30/17 22/39/22 23/40/23
f 17/30/17 23/40/23 18/31/18
f 18/31/18 23/40/23 24/41/24
f 18/31/18 24/41/24 19/32/19
f 19/32/19 24/41/24 25/42/25
f 19/32/19 25/42/25 20/33/20
f 20/33/20 47/43/47 42/44/42
f 48/45/48 21/38/21 44/37/44
f 51/46/51 46/47/46 25/42/25
f 28/48/28 27/1/27 2/11/2
f 27/1/27 1/3/1 2/11/2
f 28/48/28 2/11/2 3/13/3
f 29/49/29 28/50/28 4/15/4
f 28/50/28 3/13/3 4/15/4
f 30/4/30 29/49/29 5/5/5
f 29/49/29 4/15/4 5/5/5
f 26/2/26 33/7/33 1/3/1
f 33/7/33 6/9/6 1/3/1
f 35/17/35 10/16/10 34/26/34
f 5/5/5 10/16/10 35/17/35
f 32/8/32 37/18/37 6/9/6
f 37/18/37 11/20/11 6/9/6
f 39/25/39 15/24/15 38/35/38
f 10/16/10 15/24/15 39/25/39
f 36/19/36 41/27/41 11/20/11
f 41/27/41 16/29/16 11/20/11
f 43/34/43 20/33/20 42/44/42
f 15/24/15 20/33/20 43/34/43
f 40/28/40 45/36/45 16/29/16
f 45/36/45 21/38/21 16/29/16
f 47/43/47 25/42/25 46/47/46
f 20/33/20 25/42/25 47/43/47
f 48/45/48 49/51/49 21/38/21
f 49/51/49 22/39/22 21/38/21
f 49/52/49 23/40/23 22/39/22
f 49/52/49 50/53/50 23/40/23
f 50/53/50 24/41/24 23/40/23
f 50/53/50 51/46/51 24/41/24
f 51/46/51 25/42/25 24/41/24
f 26/54/26 27/55/27 52/56/52
f 53/57/53 30/58/30 31/59/31
f 32/60/32 33/61/33 54/62/54
f 54/62/54 52/56/52 55/63/55
f 55/63/55 52/56/52 56/64/56
f 55/63/55 56/64/56 57/65/57
f 57/65/57 56/64/56 58/66/58
f 57/65/57 58/66/58 59/67/59
f 59/67/59 58/66/58 60/68/60
f 59/67/59 60/68/60 61/69/61
f 61/69/61 60/68/60 53/57/53
f 35/70/35 53/57/53 31/59/31
f 36/71/36 37/72/37 62/73/62
f 62/73/62 54/62/54 63/74/63
f 63/74/63 54/62/54 55/63/55
f 63/74/63 55/63/55 64/75/64
f 64/75/64 55/63/55 57/65/57
f 64/75/64 57/65/57 65/76/65
f 65/76/65 57/65/57 59/67/59
f 65/76/65 59/67/59 66/77/66
f 66/77/66 59/67/59 61/69/61
f 39/78/39 61/69/61 34/79/34
f 40/80/40 41/81/41 67/82/67
f 67/82/67 62/73/62 68/83/68
f 68/83/68 62/73/62 63/74/63
f 68/83/68 63/74/63 69/84/69
f 69/84/69 63/74/63 64/75/64
f 69/84/69 64/75/64 70/85/70
f 70/85/70 64/75/64 65/76/65
f 70/85/70 65/76/65 71/86/71
f 71/86/71 65/76/65 66/77/66
f 43/87/43 66/77/66 38/88/38
f 44/89/44 45/90/45 72/91/72
f 72/91/72 67/82/67 73/92/73
f 73/92/73 67/82/67 68/83/68
f 73/92/73 68/83/68 74/93/74
f 74/93/74 68/83/68 69/84/69
f 74/93/74 69/84/69 75/94/75
f 75/94/75 69/84/69 70/85/70
f 75/94/75 70/85/70 76/95/76
f 76/95/76 70/85/70 71/86/71
f 47/96/47 71/86/71 42/97/42
f 72/91/72 48/98/48 44/89/44
f 46/99/46 51/100/51 76/95/76
f 27/55/27 28/101/28 56/64/56
f 52/56/52 27/55/27 56/64/56
f 56/64/56 28/101/28 58/66/58
f 28/102/28 29/103/29 60/68/60
f 58/66/58 28/102/28 60/68/60
f 29/103/29 30/58/30 53/57/53
f 60/68/60 29/103/29 53/57/53
f 33/61/33 26/54/26 52/56/52
f 54/62/54 33/61/33 52/56/52
f 61/69/61 35/70/35 34/79/34
f 61/69/61 53/57/53 35/70/35
f 37/72/37 32/60/32 54/62/54
f 62/73/62 37/72/37 54/62/54
f 66/77/66 39/78/39 38/88/38
f 66/77/66 61/69/61 39/78/39
f 41/81/41 36/71/36 62/73/62
f 67/82/67 41/81/41 62/73/62
f 71/86/71 43/87/43 42/97/42
f 71/86/71 66/77/66 43/87/43
f 45/90/45 40/80/40 67/82/67
f 72/91/72 45/90/45 67/82/67
f 76/95/76 47/96/47 46/99/46
f 76/95/76 71/86/71 47/96/47
f 49/104/49 48/98/48 72/91/72
f 73/92/73 49/104/49 72/91/72
f 74/93/74 49/105/49 73/92/73
f 50/106/50 49/105/49 74/93/74
f 75/94/75 50/106/50 74/93/74
f 51/100/51 50/106/50 75/94/75
f 76/95/76 51/100/51 75/94/75
f 89/107/89 90/108/90 92/109/92
f 92/109/92 91/110/91 89/107/89
f 89/107/89 91/110/91 93/111/93
f 93/111/93 94/112/94 89/107/89
f 94/112/94 93/111/93 95/113/95
f 95/113/95 96/114/96 94/112/94
f 92/109/92 90/108/90 97/115/97
f 97/115/97 98/116/98 92/109/92
f 98/116/98 97/115/97 99/117/99
f 99/117/99 100/118/100 98/116/98
f 91/110/91 92/109/92 80/119/80
f 80/119/80 79/120/79 91/110/91
f 93/111/93 91/110/91 79/120/79
f 79/120/79 81/121/81 93/111/93
f 96/114/96 95/113/95 83/122/83
f 83/122/83 84/123/84 96/114/96
f 95/113/95 93/111/93 81/121/81
f 81/121/81 83/122/83 95/113/95
f 92/109/92 98/116/98 86/124/86
f 86/124/86 80/119/80 92/109/92
f 100/118/100 99/117/99 87/125/87
f 87/125/87 88/126/88 100/118/100
f 98/116/98 100/118/100 88/126/88
f 88/126/88 86/124/86 98/116/98
f 99/117/99 97/115/97 85/127/85
f 85/127/85 87/125/87 99/117/99
f 80/119/80 86/124/86 88/126/88
f 88/126/88 87/125/87 85/127/85
f 80/119/80 88/126/88 85/127/85
f 80/119/80 85/127/85 78/128/78
f 80/119/80 78/128/78 77/129/77
f 82/130/82 84/123/84 83/122/83
f 77/129/77 82/130/82 83/122/83
f 80/119/80 77/129/77 83/122/83
f 80/119/80 83/122/83 81/121/81
f 80/119/80 81/121/81 79/120/79
# 184 faces

g
