# Max2Obj Version 4.0 Mar 10th, 2001
#
# object objObject02 to come ...
#
v  10.100000 0.000000 0.000000
v  9.865685 0.000000 -0.565684
v  9.865685 0.400000 -0.400000
v  9.865685 0.565685 0.000000
v  9.865685 0.400000 0.400001
v  9.865685 0.000000 0.565685
v  9.865685 -0.400000 0.400001
v  9.865685 -0.565685 0.000000
v  9.865685 -0.400000 -0.400000
v  9.300000 0.000000 -0.799999
v  9.300000 0.565685 -0.565684
v  9.300000 0.800000 0.000000
v  9.300000 0.565685 0.565686
v  9.300000 0.000000 0.800000
v  9.300000 -0.565685 0.565685
v  9.300000 -0.800000 0.000000
v  9.300000 -0.565685 -0.565686
v  8.734315 0.000000 -0.565684
v  8.734315 0.400000 -0.400000
v  8.734315 0.565685 0.000000
v  8.734315 0.400000 0.400001
v  8.734315 0.000000 0.565685
v  8.734315 -0.400000 0.400001
v  8.734315 -0.565685 0.000000
v  8.734315 -0.400000 -0.400000
v  8.500000 0.000000 0.000000
v  0.000000 0.000000 -0.400000
v  0.000000 0.346410 -0.199999
v  0.000000 0.346410 0.200000
v  0.000000 0.000000 0.400001
v  0.000000 -0.346410 0.200000
v  0.000000 -0.346410 -0.199999
v  9.299999 0.000000 -0.400000
v  9.299999 0.346410 -0.199999
v  9.299999 0.346410 0.200000
v  9.299999 0.000000 0.400001
v  9.299999 -0.346410 0.200000
v  9.299999 -0.346410 -0.199999
# 38 vertices

vt  0.671157 0.643575 0.999001
vt  0.683653 0.643575 0.999000
vt  0.680950 0.660237 0.999001
vt  0.671157 0.668569 0.999000
vt  0.661363 0.660237 0.999001
vt  0.658659 0.643575 0.999000
vt  0.661363 0.626912 0.999001
vt  0.671157 0.618581 0.999001
vt  0.680950 0.626912 0.999001
vt  0.696150 0.643575 0.999001
vt  0.696150 0.668569 0.999000
vt  0.688550 0.693563 0.999001
vt  0.676053 0.693563 0.999001
vt  0.658659 0.693563 0.999001
vt  0.646163 0.668569 0.999001
vt  0.646163 0.643575 0.999001
vt  0.646163 0.618581 0.999001
vt  0.653763 0.593587 0.999001
vt  0.666260 0.593587 0.999001
vt  0.683653 0.593587 0.999001
vt  0.696150 0.618581 0.999001
vt  0.596175 0.643575 0.999001
vt  0.608672 0.643575 0.999000
vt  0.611375 0.660237 0.999001
vt  0.596175 0.668569 0.999000
vt  0.621169 0.668569 0.999000
vt  0.608672 0.693563 0.999001
vt  0.626065 0.693563 0.999001
vt  0.630962 0.660237 0.999001
vt  0.638562 0.693563 0.999001
vt  0.633666 0.643575 0.999000
vt  0.630962 0.626912 0.999001
vt  0.621169 0.618581 0.999000
vt  0.633666 0.593587 0.999001
vt  0.616272 0.593587 0.999001
vt  0.611375 0.626912 0.999001
vt  0.603775 0.593587 0.999001
vt  0.596175 0.618581 0.999001
vt  0.621169 0.643575 0.999001
vt  0.989727 0.640075 0.999000
vt  0.834606 0.655760 0.998999
vt  0.834606 0.640075 0.999000
vt  0.989727 0.655760 0.999000
vt  0.834606 0.671444 0.999000
vt  0.989727 0.671444 0.999000
vt  0.989727 0.577338 0.999000
vt  0.834606 0.593022 0.999000
vt  0.834606 0.577338 0.999000
vt  0.989727 0.593022 0.999000
vt  0.834606 0.608707 0.999000
vt  0.989727 0.608707 0.998999
vt  0.834606 0.624391 0.999000
vt  0.989727 0.624391 0.999000
vt  0.671157 0.643575 0.999001
vt  0.683653 0.643575 0.999000
vt  0.680950 0.660237 0.999001
vt  0.671157 0.668569 0.999000
vt  0.661363 0.660237 0.999001
vt  0.658659 0.643575 0.999000
vt  0.661363 0.626912 0.999001
vt  0.671157 0.618581 0.999001
vt  0.680950 0.626912 0.999001
vt  0.696150 0.643575 0.999001
vt  0.696150 0.668569 0.999000
vt  0.688550 0.693563 0.999001
vt  0.676053 0.693563 0.999001
vt  0.658659 0.693563 0.999001
vt  0.646163 0.668569 0.999001
vt  0.646163 0.643575 0.999001
vt  0.646163 0.618581 0.999001
vt  0.653763 0.593587 0.999001
vt  0.666260 0.593587 0.999001
vt  0.683653 0.593587 0.999001
vt  0.696150 0.618581 0.999001
vt  0.596175 0.643575 0.999001
vt  0.608672 0.643575 0.999000
vt  0.611375 0.660237 0.999001
vt  0.596175 0.668569 0.999000
vt  0.621169 0.668569 0.999000
vt  0.608672 0.693563 0.999001
vt  0.626065 0.693563 0.999001
vt  0.630962 0.660237 0.999001
vt  0.638562 0.693563 0.999001
vt  0.633666 0.643575 0.999000
vt  0.630962 0.626912 0.999001
vt  0.621169 0.618581 0.999000
vt  0.633666 0.593587 0.999001
vt  0.616272 0.593587 0.999001
vt  0.611375 0.626912 0.999001
vt  0.603775 0.593587 0.999001
vt  0.596175 0.618581 0.999001
vt  0.621169 0.643575 0.999001
# 92 texture vertices

vn  1.000000 -0.000000 -0.000000
vn  0.663004 0.000001 -0.748616
vn  0.663003 0.529351 -0.529353
vn  0.663004 0.748616 0.000000
vn  0.663004 0.529351 0.529352
vn  0.663004 -0.000001 0.748616
vn  0.663003 -0.529351 0.529353
vn  0.663004 -0.748616 -0.000001
vn  0.663004 -0.529351 -0.529352
vn  0.000000 0.000001 -1.000000
vn  0.000000 0.707107 -0.707107
vn  -0.000000 1.000000 -0.000001
vn  -0.000000 0.707106 0.707107
vn  0.000000 -0.000001 1.000000
vn  0.000000 -0.707107 0.707107
vn  -0.000000 -1.000000 0.000000
vn  0.000000 -0.707106 -0.707108
vn  -0.663004 -0.000000 -0.748616
vn  -0.663003 0.529352 -0.529352
vn  -0.663004 0.748616 -0.000001
vn  -0.663004 0.529351 0.529352
vn  -0.663004 0.000000 0.748616
vn  -0.663003 -0.529352 0.529352
vn  -0.663004 -0.748616 0.000000
vn  -0.663004 -0.529351 -0.529352
vn  -1.000000 -0.000000 -0.000000
vn  0.000000 0.000000 -1.000000
vn  0.000000 0.866026 -0.499999
vn  0.000000 0.866026 0.499999
vn  0.000000 -0.000000 1.000000
vn  0.000000 -0.866026 0.499999
vn  0.000000 -0.866026 -0.499999
vn  0.000000 -0.000000 -1.000000
vn  0.000000 0.866026 -0.499999
vn  0.000000 0.866026 0.499999
vn  0.000000 0.000000 1.000000
vn  0.000000 -0.866026 0.499999
vn  0.000000 -0.866026 -0.499999
# 38 vertex normals

g objObject02
f 1/1/1 2/2/2 3/3/3
f 1/1/1 3/3/3 4/4/4
f 1/1/1 4/4/4 5/5/5
f 1/1/1 5/5/5 6/6/6
f 1/1/1 6/6/6 7/7/7
f 1/1/1 7/7/7 8/8/8
f 1/1/1 8/8/8 9/9/9
f 1/1/1 9/9/9 2/2/2
f 2/2/2 10/10/10 11/11/11
f 2/2/2 11/11/11 3/3/3
f 3/3/3 11/11/11 12/12/12
f 3/3/3 12/13/12 4/4/4
f 4/4/4 12/14/12 13/15/13
f 4/4/4 13/15/13 5/5/5
f 5/5/5 13/15/13 14/16/14
f 5/5/5 14/16/14 6/6/6
f 6/6/6 14/16/14 15/17/15
f 6/6/6 15/17/15 7/7/7
f 7/7/7 15/17/15 16/18/16
f 7/7/7 16/19/16 8/8/8
f 8/8/8 16/20/16 17/21/17
f 8/8/8 17/21/17 9/9/9
f 9/9/9 17/21/17 10/10/10
f 9/9/9 10/10/10 2/2/2
f 10/22/10 18/23/18 19/24/19
f 10/22/10 19/24/19 11/25/11
f 11/25/11 19/24/19 20/26/20
f 11/25/11 20/26/20 12/27/12
f 12/28/12 20/26/20 21/29/21
f 12/30/12 21/29/21 13/15/13
f 13/15/13 21/29/21 22/31/22
f 13/15/13 22/31/22 14/16/14
f 14/16/14 22/31/22 23/32/23
f 14/16/14 23/32/23 15/17/15
f 15/17/15 23/32/23 24/33/24
f 15/17/15 24/33/24 16/34/16
f 16/35/16 24/33/24 25/36/25
f 16/37/16 25/36/25 17/38/17
f 17/38/17 25/36/25 18/23/18
f 17/38/17 18/23/18 10/22/10
f 26/39/26 19/24/19 18/23/18
f 26/39/26 20/26/20 19/24/19
f 26/39/26 21/29/21 20/26/20
f 26/39/26 22/31/22 21/29/21
f 26/39/26 23/32/23 22/31/22
f 26/39/26 24/33/24 23/32/23
f 26/39/26 25/36/25 24/33/24
f 26/39/26 18/23/18 25/36/25
f 27/40/27 34/41/34 33/42/33
f 27/40/27 28/43/28 34/41/34
f 28/43/28 35/44/35 34/41/34
f 28/43/28 29/45/29 35/44/35
f 29/46/29 36/47/36 35/48/35
f 29/46/29 30/49/30 36/47/36
f 30/49/30 37/50/37 36/47/36
f 30/49/30 31/51/31 37/50/37
f 31/51/31 38/52/38 37/50/37
f 31/51/31 32/53/32 38/52/38
f 32/53/32 33/42/33 38/52/38
f 32/53/32 27/40/27 33/42/33
# 60 faces

g
